<svg width="106" height="166" viewBox="0 0 106 166" fill="none" xmlns="http://www.w3.org/2000/svg">
<rect x="0.5" y="0.5" width="105" height="165" fill="white" stroke="black"/>
<path d="M20.9258 20.1582C20.8594 21.0762 20.5195 21.7988 19.9062 22.3262C19.2969 22.8535 18.4922 23.1172 17.4922 23.1172C16.3984 23.1172 15.5371 22.75 14.9082 22.0156C14.2832 21.2773 13.9707 20.2656 13.9707 18.9805V18.459C13.9707 17.6387 14.1152 16.916 14.4043 16.291C14.6934 15.666 15.1055 15.1875 15.6406 14.8555C16.1797 14.5195 16.8047 14.3516 17.5156 14.3516C18.5 14.3516 19.293 14.6152 19.8945 15.1426C20.4961 15.6699 20.8438 16.4102 20.9375 17.3633H19.1797C19.1367 16.8125 18.9824 16.4141 18.7168 16.168C18.4551 15.918 18.0547 15.793 17.5156 15.793C16.9297 15.793 16.4902 16.0039 16.1973 16.4258C15.9082 16.8438 15.7598 17.4941 15.752 18.377V19.0215C15.752 19.9434 15.8906 20.6172 16.168 21.043C16.4492 21.4688 16.8906 21.6816 17.4922 21.6816C18.0352 21.6816 18.4395 21.5586 18.7051 21.3125C18.9746 21.0625 19.1289 20.6777 19.168 20.1582H20.9258ZM24.8867 23.1172C23.957 23.1172 23.1992 22.832 22.6133 22.2617C22.0312 21.6914 21.7402 20.9316 21.7402 19.9824V19.8184C21.7402 19.1816 21.8633 18.6133 22.1094 18.1133C22.3555 17.6094 22.7031 17.2227 23.1523 16.9531C23.6055 16.6797 24.1211 16.543 24.6992 16.543C25.5664 16.543 26.248 16.8164 26.7441 17.3633C27.2441 17.9102 27.4941 18.6855 27.4941 19.6895V20.3809H23.457C23.5117 20.7949 23.6758 21.127 23.9492 21.377C24.2266 21.627 24.5762 21.752 24.998 21.752C25.6504 21.752 26.1602 21.5156 26.5273 21.043L27.3594 21.9746C27.1055 22.334 26.7617 22.6152 26.3281 22.8184C25.8945 23.0176 25.4141 23.1172 24.8867 23.1172ZM24.6934 17.9141C24.3574 17.9141 24.084 18.0273 23.873 18.2539C23.666 18.4805 23.5332 18.8047 23.4746 19.2266H25.8301V19.0918C25.8223 18.7168 25.7207 18.4277 25.5254 18.2246C25.3301 18.0176 25.0527 17.9141 24.6934 17.9141ZM30.248 23H28.5488V14H30.248V23ZM33.4355 23H31.7363V14H33.4355V23ZM38.6328 22.3555C38.2148 22.8633 37.6367 23.1172 36.8984 23.1172C36.2188 23.1172 35.6992 22.9219 35.3398 22.5312C34.9844 22.1406 34.8027 21.5684 34.7949 20.8145V16.6602H36.4883V20.7559C36.4883 21.416 36.7891 21.7461 37.3906 21.7461C37.9648 21.7461 38.3594 21.5469 38.5742 21.1484V16.6602H40.2734V23H38.6797L38.6328 22.3555ZM43.3379 23H41.6387V14H43.3379V23ZM48.4121 23C48.334 22.8477 48.2773 22.6582 48.2422 22.4316C47.832 22.8887 47.2988 23.1172 46.6426 23.1172C46.0215 23.1172 45.5059 22.9375 45.0957 22.5781C44.6895 22.2188 44.4863 21.7656 44.4863 21.2188C44.4863 20.5469 44.7344 20.0312 45.2305 19.6719C45.7305 19.3125 46.4512 19.1309 47.3926 19.127H48.1719V18.7637C48.1719 18.4707 48.0957 18.2363 47.9434 18.0605C47.7949 17.8848 47.5586 17.7969 47.2344 17.7969C46.9492 17.7969 46.7246 17.8652 46.5605 18.002C46.4004 18.1387 46.3203 18.3262 46.3203 18.5645H44.627C44.627 18.1973 44.7402 17.8574 44.9668 17.5449C45.1934 17.2324 45.5137 16.9883 45.9277 16.8125C46.3418 16.6328 46.8066 16.543 47.3223 16.543C48.1035 16.543 48.7227 16.7402 49.1797 17.1348C49.6406 17.5254 49.8711 18.0762 49.8711 18.7871V21.5352C49.875 22.1367 49.959 22.5918 50.123 22.9004V23H48.4121ZM47.0117 21.8223C47.2617 21.8223 47.4922 21.7676 47.7031 21.6582C47.9141 21.5449 48.0703 21.3945 48.1719 21.207V20.1172H47.5391C46.6914 20.1172 46.2402 20.4102 46.1855 20.9961L46.1797 21.0957C46.1797 21.3066 46.2539 21.4805 46.4023 21.6172C46.5508 21.7539 46.7539 21.8223 47.0117 21.8223ZM54.7344 18.248C54.5039 18.2168 54.3008 18.2012 54.125 18.2012C53.4844 18.2012 53.0645 18.418 52.8652 18.8516V23H51.1719V16.6602H52.7715L52.8184 17.416C53.1582 16.834 53.6289 16.543 54.2305 16.543C54.418 16.543 54.5938 16.5684 54.7578 16.6191L54.7344 18.248ZM60.4121 21.5879H64.1445V23H58.6543V14.4688H60.4121V21.5879ZM70.373 15.8926H67.7598V23H66.002V15.8926H63.4238V14.4688H70.373V15.8926ZM76.5137 19.3027H73.1387V21.5879H77.0996V23H71.3809V14.4688H77.0879V15.8926H73.1387V17.9258H76.5137V19.3027ZM81.3125 20.0293H78.0137V18.6641H81.3125V20.0293ZM85.0801 14.4688L87.2715 20.6562L89.4512 14.4688H91.7598V23H89.9961V20.668L90.1719 16.6426L87.8691 23H86.6621L84.3652 16.6484L84.541 20.668V23H82.7832V14.4688H85.0801ZM34.8242 30.6602L34.877 31.3691C35.3262 30.8184 35.9336 30.543 36.6992 30.543C37.5156 30.543 38.0762 30.8652 38.3809 31.5098C38.8262 30.8652 39.4609 30.543 40.2852 30.543C40.9727 30.543 41.4844 30.7441 41.8203 31.1465C42.1562 31.5449 42.3242 32.1465 42.3242 32.9512V37H40.625V32.957C40.625 32.5977 40.5547 32.3359 40.4141 32.1719C40.2734 32.0039 40.0254 31.9199 39.6699 31.9199C39.1621 31.9199 38.8105 32.1621 38.6152 32.6465L38.6211 37H36.9277V32.9629C36.9277 32.5957 36.8555 32.3301 36.7109 32.166C36.5664 32.002 36.3203 31.9199 35.9727 31.9199C35.4922 31.9199 35.1445 32.1191 34.9297 32.5176V37H33.2363V30.6602H34.8242ZM43.3672 33.7715C43.3672 33.1426 43.4883 32.582 43.7305 32.0898C43.9727 31.5977 44.3203 31.2168 44.7734 30.9473C45.2305 30.6777 45.7598 30.543 46.3613 30.543C47.2168 30.543 47.9141 30.8047 48.4531 31.3281C48.9961 31.8516 49.2988 32.5625 49.3613 33.4609L49.373 33.8945C49.373 34.8672 49.1016 35.6484 48.5586 36.2383C48.0156 36.8242 47.2871 37.1172 46.373 37.1172C45.459 37.1172 44.7285 36.8242 44.1816 36.2383C43.6387 35.6523 43.3672 34.8555 43.3672 33.8477V33.7715ZM45.0605 33.8945C45.0605 34.4961 45.1738 34.957 45.4004 35.2773C45.627 35.5938 45.9512 35.752 46.373 35.752C46.7832 35.752 47.1035 35.5957 47.334 35.2832C47.5645 34.9668 47.6797 34.4629 47.6797 33.7715C47.6797 33.1816 47.5645 32.7246 47.334 32.4004C47.1035 32.0762 46.7793 31.9141 46.3613 31.9141C45.9473 31.9141 45.627 32.0762 45.4004 32.4004C45.1738 32.7207 45.0605 33.2188 45.0605 33.8945ZM50.1523 33.7832C50.1523 32.7949 50.373 32.0078 50.8145 31.4219C51.2598 30.8359 51.8672 30.543 52.6367 30.543C53.2539 30.543 53.7637 30.7734 54.166 31.2344V28H55.8652V37H54.3359L54.2539 36.3262C53.832 36.8535 53.2891 37.1172 52.625 37.1172C51.8789 37.1172 51.2793 36.8242 50.8262 36.2383C50.377 35.6484 50.1523 34.8301 50.1523 33.7832ZM51.8457 33.9062C51.8457 34.5 51.9492 34.9551 52.1562 35.2715C52.3633 35.5879 52.6641 35.7461 53.0586 35.7461C53.582 35.7461 53.9512 35.5254 54.166 35.084V32.582C53.9551 32.1406 53.5898 31.9199 53.0703 31.9199C52.2539 31.9199 51.8457 32.582 51.8457 33.9062ZM60.0957 37.1172C59.166 37.1172 58.4082 36.832 57.8223 36.2617C57.2402 35.6914 56.9492 34.9316 56.9492 33.9824V33.8184C56.9492 33.1816 57.0723 32.6133 57.3184 32.1133C57.5645 31.6094 57.9121 31.2227 58.3613 30.9531C58.8145 30.6797 59.3301 30.543 59.9082 30.543C60.7754 30.543 61.457 30.8164 61.9531 31.3633C62.4531 31.9102 62.7031 32.6855 62.7031 33.6895V34.3809H58.666C58.7207 34.7949 58.8848 35.127 59.1582 35.377C59.4355 35.627 59.7852 35.752 60.207 35.752C60.8594 35.752 61.3691 35.5156 61.7363 35.043L62.5684 35.9746C62.3145 36.334 61.9707 36.6152 61.5371 36.8184C61.1035 37.0176 60.623 37.1172 60.0957 37.1172ZM59.9023 31.9141C59.5664 31.9141 59.293 32.0273 59.082 32.2539C58.875 32.4805 58.7422 32.8047 58.6836 33.2266H61.0391V33.0918C61.0312 32.7168 60.9297 32.4277 60.7344 32.2246C60.5391 32.0176 60.2617 31.9141 59.9023 31.9141ZM65.2578 30.6602L65.3105 31.3691C65.7598 30.8184 66.3672 30.543 67.1328 30.543C67.9492 30.543 68.5098 30.8652 68.8145 31.5098C69.2598 30.8652 69.8945 30.543 70.7188 30.543C71.4062 30.543 71.918 30.7441 72.2539 31.1465C72.5898 31.5449 72.7578 32.1465 72.7578 32.9512V37H71.0586V32.957C71.0586 32.5977 70.9883 32.3359 70.8477 32.1719C70.707 32.0039 70.459 31.9199 70.1035 31.9199C69.5957 31.9199 69.2441 32.1621 69.0488 32.6465L69.0547 37H67.3613V32.9629C67.3613 32.5957 67.2891 32.3301 67.1445 32.166C67 32.002 66.7539 31.9199 66.4062 31.9199C65.9258 31.9199 65.5781 32.1191 65.3633 32.5176V37H63.6699V30.6602H65.2578Z" fill="black"/>
<rect x="1" y="54" width="25" height="8" fill="#C4C4C4"/>
<path d="M13.3271 56.4463H12.0205V60H11.1416V56.4463H9.85254V55.7344H13.3271V56.4463ZM15.3574 57.2051L16.1572 55.7344H17.168L15.9258 57.8496L17.2002 60H16.1777L15.3574 58.5059L14.5371 60H13.5146L14.7891 57.8496L13.5469 55.7344H14.5576L15.3574 57.2051Z" fill="black"/>
<rect x="1" y="70" width="25" height="8" fill="#C4C4C4"/>
<path d="M11.6367 74.4385H10.9365V76H10.0576V71.7344H11.6426C12.1465 71.7344 12.5352 71.8467 12.8086 72.0713C13.082 72.2959 13.2188 72.6133 13.2188 73.0234C13.2188 73.3145 13.1553 73.5576 13.0283 73.7529C12.9033 73.9463 12.7129 74.1006 12.457 74.2158L13.3799 75.959V76H12.4365L11.6367 74.4385ZM10.9365 73.7266H11.6455C11.8662 73.7266 12.0371 73.6709 12.1582 73.5596C12.2793 73.4463 12.3398 73.291 12.3398 73.0938C12.3398 72.8926 12.2822 72.7344 12.167 72.6191C12.0537 72.5039 11.8789 72.4463 11.6426 72.4463H10.9365V73.7266ZM15.416 73.2051L16.2158 71.7344H17.2266L15.9844 73.8496L17.2588 76H16.2363L15.416 74.5059L14.5957 76H13.5732L14.8477 73.8496L13.6055 71.7344H14.6162L15.416 73.2051Z" fill="black"/>
<rect x="1" y="86" width="25" height="8" fill="#C4C4C4"/>
<path d="M9.9375 90.4385H9.2373V92H8.3584V87.7344H9.94336C10.4473 87.7344 10.8359 87.8467 11.1094 88.0713C11.3828 88.2959 11.5195 88.6133 11.5195 89.0234C11.5195 89.3145 11.4561 89.5576 11.3291 89.7529C11.2041 89.9463 11.0137 90.1006 10.7578 90.2158L11.6807 91.959V92H10.7373L9.9375 90.4385ZM9.2373 89.7266H9.94629C10.167 89.7266 10.3379 89.6709 10.459 89.5596C10.5801 89.4463 10.6406 89.291 10.6406 89.0938C10.6406 88.8926 10.583 88.7344 10.4678 88.6191C10.3545 88.5039 10.1797 88.4463 9.94336 88.4463H9.2373V89.7266ZM15.2549 88.4463H13.9482V92H13.0693V88.4463H11.7803V87.7344H15.2549V88.4463ZM17.9238 90.8809C17.9238 90.7148 17.8652 90.5879 17.748 90.5C17.6309 90.4102 17.4199 90.3164 17.1152 90.2188C16.8105 90.1191 16.5693 90.0215 16.3916 89.9258C15.9072 89.6641 15.665 89.3115 15.665 88.8682C15.665 88.6377 15.7295 88.4326 15.8584 88.2529C15.9893 88.0713 16.1758 87.9297 16.418 87.8281C16.6621 87.7266 16.9355 87.6758 17.2383 87.6758C17.543 87.6758 17.8145 87.7314 18.0527 87.8428C18.291 87.9521 18.4756 88.1074 18.6064 88.3086C18.7393 88.5098 18.8057 88.7383 18.8057 88.9941H17.9268C17.9268 88.7988 17.8652 88.6475 17.7422 88.54C17.6191 88.4307 17.4463 88.376 17.2236 88.376C17.0088 88.376 16.8418 88.4219 16.7227 88.5137C16.6035 88.6035 16.5439 88.7227 16.5439 88.8711C16.5439 89.0098 16.6133 89.126 16.752 89.2197C16.8926 89.3135 17.0986 89.4014 17.3701 89.4834C17.8701 89.6338 18.2344 89.8203 18.4629 90.043C18.6914 90.2656 18.8057 90.543 18.8057 90.875C18.8057 91.2441 18.666 91.5342 18.3867 91.7451C18.1074 91.9541 17.7314 92.0586 17.2588 92.0586C16.9307 92.0586 16.6318 91.999 16.3623 91.8799C16.0928 91.7588 15.8867 91.5938 15.7441 91.3848C15.6035 91.1758 15.5332 90.9336 15.5332 90.6582H16.415C16.415 91.1289 16.6963 91.3643 17.2588 91.3643C17.4678 91.3643 17.6309 91.3223 17.748 91.2383C17.8652 91.1523 17.9238 91.0332 17.9238 90.8809Z" fill="black"/>
<rect x="1" y="102" width="25" height="8" fill="#C4C4C4"/>
<path d="M11.6309 106.579C11.5977 107.038 11.4277 107.399 11.1211 107.663C10.8164 107.927 10.4141 108.059 9.91406 108.059C9.36719 108.059 8.93652 107.875 8.62207 107.508C8.30957 107.139 8.15332 106.633 8.15332 105.99V105.729C8.15332 105.319 8.22559 104.958 8.37012 104.646C8.51465 104.333 8.7207 104.094 8.98828 103.928C9.25781 103.76 9.57031 103.676 9.92578 103.676C10.418 103.676 10.8145 103.808 11.1152 104.071C11.416 104.335 11.5898 104.705 11.6367 105.182H10.7578C10.7363 104.906 10.6592 104.707 10.5264 104.584C10.3955 104.459 10.1953 104.396 9.92578 104.396C9.63281 104.396 9.41309 104.502 9.2666 104.713C9.12207 104.922 9.04785 105.247 9.04395 105.688V106.011C9.04395 106.472 9.11328 106.809 9.25195 107.021C9.39258 107.234 9.61328 107.341 9.91406 107.341C10.1855 107.341 10.3877 107.279 10.5205 107.156C10.6553 107.031 10.7324 106.839 10.752 106.579H11.6309ZM15.3311 104.446H14.0244V108H13.1455V104.446H11.8564V103.734H15.3311V104.446ZM18 106.881C18 106.715 17.9414 106.588 17.8242 106.5C17.707 106.41 17.4961 106.316 17.1914 106.219C16.8867 106.119 16.6455 106.021 16.4678 105.926C15.9834 105.664 15.7412 105.312 15.7412 104.868C15.7412 104.638 15.8057 104.433 15.9346 104.253C16.0654 104.071 16.252 103.93 16.4941 103.828C16.7383 103.727 17.0117 103.676 17.3145 103.676C17.6191 103.676 17.8906 103.731 18.1289 103.843C18.3672 103.952 18.5518 104.107 18.6826 104.309C18.8154 104.51 18.8818 104.738 18.8818 104.994H18.0029C18.0029 104.799 17.9414 104.647 17.8184 104.54C17.6953 104.431 17.5225 104.376 17.2998 104.376C17.085 104.376 16.918 104.422 16.7988 104.514C16.6797 104.604 16.6201 104.723 16.6201 104.871C16.6201 105.01 16.6895 105.126 16.8281 105.22C16.9688 105.313 17.1748 105.401 17.4463 105.483C17.9463 105.634 18.3105 105.82 18.5391 106.043C18.7676 106.266 18.8818 106.543 18.8818 106.875C18.8818 107.244 18.7422 107.534 18.4629 107.745C18.1836 107.954 17.8076 108.059 17.335 108.059C17.0068 108.059 16.708 107.999 16.4385 107.88C16.1689 107.759 15.9629 107.594 15.8203 107.385C15.6797 107.176 15.6094 106.934 15.6094 106.658H16.4912C16.4912 107.129 16.7725 107.364 17.335 107.364C17.5439 107.364 17.707 107.322 17.8242 107.238C17.9414 107.152 18 107.033 18 106.881Z" fill="black"/>
<rect x="1" y="118" width="25" height="8" fill="#C4C4C4"/>
<path d="M8.28223 122.497V124H7.40332V119.734H9.06738C9.3877 119.734 9.66895 119.793 9.91113 119.91C10.1553 120.027 10.3428 120.194 10.4736 120.411C10.6045 120.626 10.6699 120.871 10.6699 121.146C10.6699 121.564 10.5264 121.895 10.2393 122.137C9.9541 122.377 9.55859 122.497 9.05273 122.497H8.28223ZM8.28223 121.785H9.06738C9.2998 121.785 9.47656 121.73 9.59766 121.621C9.7207 121.512 9.78223 121.355 9.78223 121.152C9.78223 120.943 9.7207 120.774 9.59766 120.646C9.47461 120.517 9.30469 120.45 9.08789 120.446H8.28223V121.785ZM14.5986 122.77L15.1729 119.734H16.0488L15.1025 124H14.2178L13.5234 121.146L12.8291 124H11.9443L10.998 119.734H11.874L12.4512 122.764L13.1543 119.734H13.8984L14.5986 122.77ZM18.1055 122.438H17.4053V124H16.5264V119.734H18.1113C18.6152 119.734 19.0039 119.847 19.2773 120.071C19.5508 120.296 19.6875 120.613 19.6875 121.023C19.6875 121.314 19.624 121.558 19.4971 121.753C19.3721 121.946 19.1816 122.101 18.9258 122.216L19.8486 123.959V124H18.9053L18.1055 122.438ZM17.4053 121.727H18.1143C18.335 121.727 18.5059 121.671 18.627 121.56C18.748 121.446 18.8086 121.291 18.8086 121.094C18.8086 120.893 18.751 120.734 18.6357 120.619C18.5225 120.504 18.3477 120.446 18.1113 120.446H17.4053V121.727Z" fill="black"/>
<rect x="1" y="134" width="25" height="8" fill="#C4C4C4"/>
<path d="M6.43652 138.438H5.73633V140H4.85742V135.734H6.44238C6.94629 135.734 7.33496 135.847 7.6084 136.071C7.88184 136.296 8.01855 136.613 8.01855 137.023C8.01855 137.314 7.95508 137.558 7.82812 137.753C7.70312 137.946 7.5127 138.101 7.25684 138.216L8.17969 139.959V140H7.23633L6.43652 138.438ZM5.73633 137.727H6.44531C6.66602 137.727 6.83691 137.671 6.95801 137.56C7.0791 137.446 7.13965 137.291 7.13965 137.094C7.13965 136.893 7.08203 136.734 6.9668 136.619C6.85352 136.504 6.67871 136.446 6.44238 136.446H5.73633V137.727ZM11.2559 138.151H9.56836V139.294H11.5488V140H8.68945V135.734H11.543V136.446H9.56836V137.463H11.2559V138.151ZM14.2764 138.881C14.2764 138.715 14.2178 138.588 14.1006 138.5C13.9834 138.41 13.7725 138.316 13.4678 138.219C13.1631 138.119 12.9219 138.021 12.7441 137.926C12.2598 137.664 12.0176 137.312 12.0176 136.868C12.0176 136.638 12.082 136.433 12.2109 136.253C12.3418 136.071 12.5283 135.93 12.7705 135.828C13.0146 135.727 13.2881 135.676 13.5908 135.676C13.8955 135.676 14.167 135.731 14.4053 135.843C14.6436 135.952 14.8281 136.107 14.959 136.309C15.0918 136.51 15.1582 136.738 15.1582 136.994H14.2793C14.2793 136.799 14.2178 136.647 14.0947 136.54C13.9717 136.431 13.7988 136.376 13.5762 136.376C13.3613 136.376 13.1943 136.422 13.0752 136.514C12.9561 136.604 12.8965 136.723 12.8965 136.871C12.8965 137.01 12.9658 137.126 13.1045 137.22C13.2451 137.313 13.4512 137.401 13.7227 137.483C14.2227 137.634 14.5869 137.82 14.8154 138.043C15.0439 138.266 15.1582 138.543 15.1582 138.875C15.1582 139.244 15.0186 139.534 14.7393 139.745C14.46 139.954 14.084 140.059 13.6113 140.059C13.2832 140.059 12.9844 139.999 12.7148 139.88C12.4453 139.759 12.2393 139.594 12.0967 139.385C11.9561 139.176 11.8857 138.934 11.8857 138.658H12.7676C12.7676 139.129 13.0488 139.364 13.6113 139.364C13.8203 139.364 13.9834 139.322 14.1006 139.238C14.2178 139.152 14.2764 139.033 14.2764 138.881ZM18.3223 138.151H16.6348V139.294H18.6152V140H15.7559V135.734H18.6094V136.446H16.6348V137.463H18.3223V138.151ZM22.4004 136.446H21.0938V140H20.2148V136.446H18.9258V135.734H22.4004V136.446Z" fill="black"/>
</svg>
