<svg width="749" height="749" viewBox="0 0 749 749" fill="none" xmlns="http://www.w3.org/2000/svg">
<path d="M713.528 491.4L732.76 449.224L608.597 424.667L484.435 449.224L465.204 491.4L589.366 563.085L659.374 552.242L713.528 491.4Z" fill="#D6D2CD"/>
<path d="M264.896 534.64L284.127 492.464L159.965 467.907L35.8021 492.464L16.5708 534.64L140.733 606.326L264.896 534.64Z" fill="#D6D2CD"/>
<path d="M489.211 368.56L508.443 326.385L384.28 301.827L260.118 326.385L240.887 368.56L365.049 440.246L489.211 368.56Z" fill="#D6D2CD"/>
<path d="M384.653 112.242L260.49 183.927L229.074 242.888L353.237 171.203L384.653 112.242Z" fill="#E0A173" stroke="black" stroke-width="1.80005" stroke-linecap="round" stroke-linejoin="round"/>
<rect width="143.37" height="143.37" transform="matrix(-0.866025 -0.5 -0.866025 0.5 508.938 183.928)" fill="#4E4E4E" stroke="black" stroke-width="1.80005" stroke-linecap="round" stroke-linejoin="round"/>
<rect width="104.784" height="104.784" transform="matrix(-0.866025 -0.5 -0.866025 0.5 475.522 203.222)" fill="black" stroke="black" stroke-width="1.80005" stroke-linecap="round" stroke-linejoin="round"/>
<rect width="143.37" height="143.37" transform="matrix(-0.866025 0.5 2.20305e-08 1 508.938 183.928)" fill="#FFB681" stroke="black" stroke-width="1.80005" stroke-linecap="round" stroke-linejoin="round"/>
<path d="M466.332 208.529L386.527 254.604L386.527 397.086L450.155 359.207L466.332 208.529Z" fill="#E0A173"/>
<rect width="25.052" height="59.4845" transform="matrix(-0.866025 0.5 2.20305e-08 1 475.086 254.596)" fill="white" stroke="black" stroke-width="1.80005" stroke-linecap="round" stroke-linejoin="round"/>
<path d="M508.938 183.931L384.776 255.616L405.939 324.696L530.102 253.01L508.938 183.931Z" fill="#FFDBC0" stroke="black" stroke-width="1.80005" stroke-linecap="round" stroke-linejoin="round"/>
<path d="M260.349 183.418L384.775 255.613L384.775 398.984L260.612 327.298L260.349 183.418Z" fill="#E0A173" stroke="black" stroke-width="1.80005" stroke-linecap="round" stroke-linejoin="round"/>
<rect width="143.37" height="143.37" transform="matrix(-0.866025 -0.5 -0.866025 0.5 731.914 306.87)" fill="#FFDBC0" stroke="black" stroke-width="1.80005" stroke-linecap="round" stroke-linejoin="round"/>
<rect width="21.1478" height="143.37" transform="matrix(-0.866025 -0.5 -0.866025 0.5 678.991 276.313)" fill="white" stroke="black" stroke-width="1.80005" stroke-linecap="round" stroke-linejoin="round"/>
<rect width="143.37" height="143.37" transform="matrix(-0.866025 0.5 2.20305e-08 1 731.914 306.87)" fill="#FFB681" stroke="black" stroke-width="1.80005" stroke-linecap="round" stroke-linejoin="round"/>
<rect width="29.8867" height="30.3512" transform="matrix(-0.866025 0.5 2.20305e-08 1 727.317 321.46)" fill="#FFDBC0" stroke="black" stroke-width="1.80005" stroke-linecap="round" stroke-linejoin="round"/>
<path d="M671.238 368.911L607.751 378.557L607.751 521.928L671.238 512.281L671.238 368.911Z" fill="#E0A173" stroke="black" stroke-width="1.80005" stroke-linecap="round" stroke-linejoin="round"/>
<rect width="143.37" height="143.37" transform="matrix(0.866025 0.5 -2.20305e-08 1 483.589 306.87)" fill="#4E4E4E" stroke="black" stroke-width="1.80005" stroke-linecap="round" stroke-linejoin="round"/>
<rect width="101.265" height="101.265" transform="matrix(0.866025 0.5 -2.20305e-08 1 520.053 327.923)" fill="black"/>
<rect width="19.9244" height="24.564" transform="matrix(0.866025 0.5 -2.20305e-08 1 537.51 338.001)" fill="white" stroke="black" stroke-width="1.80005" stroke-linecap="round" stroke-linejoin="round"/>
<rect width="143.37" height="143.37" transform="matrix(-0.866025 -0.5 -0.866025 0.5 284.625 350.008)" fill="#FFDBC0" stroke="black" stroke-width="1.80005" stroke-linecap="round" stroke-linejoin="round"/>
<rect width="67.6724" height="143.37" transform="matrix(-0.866025 -0.5 -0.866025 0.5 284.625 350.01)" fill="#FFDBC0" stroke="black" stroke-width="1.80005" stroke-linecap="round" stroke-linejoin="round"/>
<rect width="26.1976" height="34.0792" transform="matrix(-0.866025 -0.5 -0.866025 0.5 266.178 349.656)" fill="white" stroke="black" stroke-width="1.80005" stroke-linecap="round" stroke-linejoin="round"/>
<rect width="145.748" height="19.4308" transform="matrix(-0.866025 -0.5 -0.866025 0.5 231.99 381.586)" fill="white" stroke="black" stroke-width="1.80005" stroke-linecap="round" stroke-linejoin="round"/>
<rect width="143.37" height="143.37" transform="matrix(-0.866025 0.5 2.20305e-08 1 284.625 350.008)" fill="#FFB681" stroke="black" stroke-width="1.80005" stroke-linecap="round" stroke-linejoin="round"/>
<rect width="143.37" height="143.37" transform="matrix(0.866025 0.5 -2.20305e-08 1 36.2998 350.008)" fill="#E0A173" stroke="black" stroke-width="1.80005" stroke-linecap="round" stroke-linejoin="round"/>
<rect width="40.5595" height="17.4237" transform="matrix(0.866025 0.5 -2.20305e-08 1 80.8193 399.107)" fill="#4E4E4E" stroke="black" stroke-width="1.80005" stroke-linecap="round" stroke-linejoin="round"/>
<rect width="19.925" height="48.4613" transform="matrix(-0.866025 0.5 2.20305e-08 1 231.232 380.799)" fill="white" stroke="black" stroke-width="1.80005" stroke-linecap="round" stroke-linejoin="round"/>
</svg>
