<svg width="24" height="24" viewBox="0 0 24 24" fill="none" xmlns="http://www.w3.org/2000/svg">
<path d="M21.9951 21.9999L22.0001 21.999V14.664C22.0001 11.0757 21.2276 8.31152 17.0326 8.31152C15.0159 8.31152 13.6626 9.41819 13.1101 10.4674H13.0517V8.5H9.07422V21.999H13.2159V15.3874C13.2159 13.6465 13.5459 11.9632 15.7017 11.9632C17.8259 11.9632 17.8576 13.9499 17.8576 15.499V21.9999H21.9951Z" fill="white"/>
<path d="M2 8.5H6.5V22H2V8.5Z" fill="white"/>
<path d="M4.25 2C3.00789 2 2 3.00319 2 4.23951C2 5.47582 3.00789 6.5 4.25 6.5C5.49211 6.5 6.5 5.47582 6.5 4.23951C6.49922 3.00319 5.49133 2 4.25 2Z" fill="white"/>
</svg>
