<svg width="24" height="24" viewBox="0 0 24 24" fill="none" xmlns="http://www.w3.org/2000/svg">
<path d="M23 12.1772C23 10.8189 21.9174 9.71653 20.5835 9.71653C19.9262 9.71653 19.3462 9.97244 18.9209 10.4055C17.2777 9.20472 14.9965 8.41732 12.4833 8.3189L13.5852 3.06299L17.1617 3.83071C17.2004 4.75591 17.9543 5.50394 18.8823 5.50394C19.8295 5.50394 20.6028 4.71654 20.6028 3.75197C20.6028 2.7874 19.8295 2 18.8823 2C18.2056 2 17.6257 2.3937 17.355 2.98425L13.3533 2.11811C13.2373 2.09843 13.1213 2.11811 13.0246 2.17717C12.9279 2.23622 12.8699 2.33465 12.8313 2.45276L11.6134 8.3189C9.04218 8.39764 6.74165 9.16535 5.07909 10.4055C4.65378 9.99213 4.05448 9.71653 3.41652 9.71653C2.0826 9.71653 1 10.8189 1 12.1772C1 13.1811 1.57997 14.0276 2.43058 14.4213C2.39192 14.6575 2.37258 14.9134 2.37258 15.1693C2.37258 18.9488 6.68366 22 12.0193 22C17.355 22 21.6661 18.9488 21.6661 15.1693C21.6661 14.9134 21.6467 14.6772 21.6081 14.4409C22.4007 14.0472 23 13.1811 23 12.1772ZM6.471 13.9291C6.471 12.9646 7.24429 12.1772 8.19157 12.1772C9.13884 12.1772 9.91213 12.9646 9.91213 13.9291C9.91213 14.8937 9.13884 15.6811 8.19157 15.6811C7.24429 15.6811 6.471 14.8937 6.471 13.9291ZM16.0791 18.5551C14.8998 19.7559 12.6573 19.8346 12 19.8346C11.3427 19.8346 9.08084 19.7362 7.92091 18.5551C7.74692 18.378 7.74692 18.0827 7.92091 17.9055C8.0949 17.7283 8.38489 17.7283 8.55888 17.9055C9.2935 18.6535 10.8787 18.9291 12.0193 18.9291C13.1599 18.9291 14.7258 18.6535 15.4798 17.9055C15.6538 17.7283 15.9438 17.7283 16.1178 17.9055C16.2531 18.1024 16.2531 18.378 16.0791 18.5551ZM15.7698 15.6811C14.8225 15.6811 14.0492 14.8937 14.0492 13.9291C14.0492 12.9646 14.8225 12.1772 15.7698 12.1772C16.717 12.1772 17.4903 12.9646 17.4903 13.9291C17.4903 14.8937 16.717 15.6811 15.7698 15.6811Z" fill="white"/>
</svg>
