<svg width="372" height="90" viewBox="0 0 372 90" fill="none" xmlns="http://www.w3.org/2000/svg">
<path d="M184.812 47.6214C184.812 49.6177 184.355 51.226 183.442 52.4463C182.529 53.6667 181.292 54.2769 179.732 54.2769C178.14 54.2769 176.887 53.7718 175.974 52.7615V59.0775H173.731V40.9175H175.78L175.889 42.3722C176.802 41.2408 178.071 40.675 179.696 40.675C181.272 40.675 182.516 41.2691 183.43 42.4571C184.351 43.6451 184.812 45.2979 184.812 47.4154V47.6214ZM182.569 47.3669C182.569 45.8879 182.254 44.72 181.623 43.8634C180.993 43.0067 180.128 42.5783 179.029 42.5783C177.671 42.5783 176.653 43.1804 175.974 44.3846V50.6521C176.645 51.8483 177.671 52.4463 179.053 52.4463C180.128 52.4463 180.981 52.022 181.611 51.1734C182.25 50.3168 182.569 49.0479 182.569 47.3669ZM195.771 54.0344C195.641 53.7758 195.536 53.3151 195.456 52.6524C194.413 53.7354 193.168 54.2769 191.722 54.2769C190.429 54.2769 189.366 53.9132 188.533 53.1858C187.709 52.4504 187.297 51.521 187.297 50.3976C187.297 49.0317 187.814 47.973 188.849 47.2214C189.891 46.4617 191.354 46.0818 193.237 46.0818H195.419V45.0514C195.419 44.2675 195.185 43.6451 194.716 43.1845C194.247 42.7157 193.556 42.4814 192.643 42.4814C191.843 42.4814 191.172 42.6834 190.631 43.0875C190.089 43.4916 189.818 43.9805 189.818 44.5544H187.564C187.564 43.8997 187.794 43.2693 188.255 42.6632C188.723 42.049 189.354 41.5641 190.146 41.2085C190.946 40.8529 191.823 40.675 192.776 40.675C194.288 40.675 195.472 41.0549 196.328 41.8146C197.185 42.5662 197.63 43.6047 197.662 44.9302V50.9673C197.662 52.1715 197.815 53.1293 198.123 53.8405V54.0344H195.771ZM192.049 52.3251C192.752 52.3251 193.419 52.1433 194.049 51.7796C194.68 51.4159 195.136 50.9431 195.419 50.3612V47.6699H193.661C190.913 47.6699 189.54 48.4741 189.54 50.0824C189.54 50.7855 189.774 51.3351 190.243 51.7311C190.711 52.1271 191.314 52.3251 192.049 52.3251ZM206.439 52.4463C207.239 52.4463 207.938 52.2039 208.536 51.719C209.134 51.234 209.465 50.6279 209.53 49.9005H211.652C211.611 50.6521 211.353 51.3674 210.876 52.0463C210.399 52.7252 209.76 53.2666 208.96 53.6707C208.168 54.0748 207.328 54.2769 206.439 54.2769C204.653 54.2769 203.23 53.6829 202.172 52.4948C201.121 51.2987 200.596 49.6662 200.596 47.5972V47.2214C200.596 45.9444 200.83 44.8089 201.299 43.8149C201.767 42.8208 202.438 42.049 203.311 41.4994C204.192 40.9498 205.231 40.675 206.427 40.675C207.898 40.675 209.118 41.1155 210.088 41.9964C211.066 42.8774 211.587 44.021 211.652 45.4272H209.53C209.465 44.5786 209.142 43.8836 208.56 43.3421C207.986 42.7925 207.275 42.5177 206.427 42.5177C205.287 42.5177 204.402 42.9299 203.772 43.7543C203.149 44.5705 202.838 45.7545 202.838 47.3062V47.7305C202.838 49.2419 203.149 50.4057 203.772 51.2219C204.394 52.0382 205.283 52.4463 206.439 52.4463ZM217.834 47.9609L216.428 49.4277V54.0344H214.185V35.4137H216.428V46.6759L217.628 45.2332L221.714 40.9175H224.441L219.338 46.397L225.035 54.0344H222.405L217.834 47.9609ZM234.855 54.0344C234.725 53.7758 234.62 53.3151 234.54 52.6524C233.497 53.7354 232.252 54.2769 230.806 54.2769C229.513 54.2769 228.45 53.9132 227.617 53.1858C226.793 52.4504 226.381 51.521 226.381 50.3976C226.381 49.0317 226.898 47.973 227.933 47.2214C228.975 46.4617 230.438 46.0818 232.321 46.0818H234.503V45.0514C234.503 44.2675 234.269 43.6451 233.8 43.1845C233.331 42.7157 232.64 42.4814 231.727 42.4814C230.927 42.4814 230.256 42.6834 229.715 43.0875C229.173 43.4916 228.902 43.9805 228.902 44.5544H226.648C226.648 43.8997 226.878 43.2693 227.339 42.6632C227.807 42.049 228.438 41.5641 229.23 41.2085C230.03 40.8529 230.907 40.675 231.86 40.675C233.372 40.675 234.556 41.0549 235.412 41.8146C236.269 42.5662 236.714 43.6047 236.746 44.9302V50.9673C236.746 52.1715 236.899 53.1293 237.207 53.8405V54.0344H234.855ZM231.133 52.3251C231.836 52.3251 232.503 52.1433 233.133 51.7796C233.764 51.4159 234.22 50.9431 234.503 50.3612V47.6699H232.745C229.998 47.6699 228.624 48.4741 228.624 50.0824C228.624 50.7855 228.858 51.3351 229.327 51.7311C229.795 52.1271 230.398 52.3251 231.133 52.3251ZM239.728 47.3669C239.728 45.3221 240.201 43.6977 241.147 42.4935C242.092 41.2812 243.345 40.675 244.905 40.675C246.505 40.675 247.753 41.2408 248.651 42.3722L248.76 40.9175H250.808V53.7192C250.808 55.4164 250.303 56.754 249.293 57.7319C248.291 58.7098 246.941 59.1988 245.244 59.1988C244.298 59.1988 243.373 58.9967 242.468 58.5926C241.563 58.1885 240.872 57.6349 240.395 56.9318L241.559 55.5861C242.52 56.7742 243.696 57.3682 245.086 57.3682C246.178 57.3682 247.026 57.0611 247.632 56.4469C248.246 55.8326 248.554 54.9679 248.554 53.8526V52.7252C247.656 53.7596 246.432 54.2769 244.88 54.2769C243.345 54.2769 242.1 53.6586 241.147 52.4221C240.201 51.1856 239.728 49.5005 239.728 47.3669ZM241.983 47.6214C241.983 49.1004 242.286 50.2642 242.892 51.1128C243.498 51.9533 244.347 52.3736 245.438 52.3736C246.852 52.3736 247.891 51.7311 248.554 50.4461V44.4574C247.867 43.2047 246.836 42.5783 245.462 42.5783C244.371 42.5783 243.519 43.0026 242.904 43.8512C242.29 44.6998 241.983 45.9566 241.983 47.6214ZM259.646 54.2769C257.868 54.2769 256.421 53.695 255.306 52.5312C254.191 51.3593 253.633 49.7955 253.633 47.8396V47.4275C253.633 46.1263 253.88 44.9665 254.373 43.9482C254.874 42.9218 255.569 42.1217 256.458 41.5479C257.355 40.966 258.325 40.675 259.367 40.675C261.072 40.675 262.398 41.2367 263.343 42.3601C264.289 43.4835 264.762 45.0918 264.762 47.185V48.1185H255.876C255.908 49.4116 256.284 50.4582 257.003 51.2583C257.731 52.0503 258.652 52.4463 259.767 52.4463C260.559 52.4463 261.23 52.2847 261.78 51.9614C262.329 51.6381 262.81 51.2098 263.222 50.6764L264.592 51.7432C263.493 53.4323 261.844 54.2769 259.646 54.2769ZM259.367 42.5177C258.462 42.5177 257.702 42.8491 257.088 43.5118C256.474 44.1664 256.094 45.0878 255.949 46.2758H262.519V46.1061C262.454 44.9665 262.147 44.0856 261.598 43.4633C261.048 42.8329 260.305 42.5177 259.367 42.5177ZM279.867 42.9299C279.527 42.8733 279.16 42.845 278.764 42.845C277.293 42.845 276.295 43.4714 275.769 44.7241V54.0344H273.527V40.9175H275.709L275.745 42.4329C276.481 41.261 277.523 40.675 278.873 40.675C279.309 40.675 279.641 40.7316 279.867 40.8448V42.9299ZM287.141 54.2769C285.363 54.2769 283.916 53.695 282.801 52.5312C281.685 51.3593 281.128 49.7955 281.128 47.8396V47.4275C281.128 46.1263 281.374 44.9665 281.867 43.9482C282.368 42.9218 283.063 42.1217 283.952 41.5479C284.849 40.966 285.819 40.675 286.862 40.675C288.567 40.675 289.892 41.2367 290.838 42.3601C291.784 43.4835 292.256 45.0918 292.256 47.185V48.1185H283.37C283.403 49.4116 283.779 50.4582 284.498 51.2583C285.225 52.0503 286.147 52.4463 287.262 52.4463C288.054 52.4463 288.725 52.2847 289.274 51.9614C289.824 51.6381 290.305 51.2098 290.717 50.6764L292.087 51.7432C290.988 53.4323 289.339 54.2769 287.141 54.2769ZM286.862 42.5177C285.957 42.5177 285.197 42.8491 284.583 43.5118C283.968 44.1664 283.589 45.0878 283.443 46.2758H290.014V46.1061C289.949 44.9665 289.642 44.0856 289.092 43.4633C288.543 42.8329 287.799 42.5177 286.862 42.5177ZM294.329 47.3669C294.329 45.3221 294.802 43.6977 295.748 42.4935C296.693 41.2812 297.946 40.675 299.506 40.675C301.106 40.675 302.355 41.2408 303.252 42.3722L303.361 40.9175H305.41V53.7192C305.41 55.4164 304.905 56.754 303.894 57.7319C302.892 58.7098 301.543 59.1988 299.845 59.1988C298.9 59.1988 297.974 58.9967 297.069 58.5926C296.164 58.1885 295.473 57.6349 294.996 56.9318L296.16 55.5861C297.122 56.7742 298.298 57.3682 299.688 57.3682C300.779 57.3682 301.627 57.0611 302.234 56.4469C302.848 55.8326 303.155 54.9679 303.155 53.8526V52.7252C302.258 53.7596 301.033 54.2769 299.482 54.2769C297.946 54.2769 296.701 53.6586 295.748 52.4221C294.802 51.1856 294.329 49.5005 294.329 47.3669ZM296.584 47.6214C296.584 49.1004 296.887 50.2642 297.494 51.1128C298.1 51.9533 298.948 52.3736 300.039 52.3736C301.454 52.3736 302.492 51.7311 303.155 50.4461V44.4574C302.468 43.2047 301.437 42.5783 300.064 42.5783C298.972 42.5783 298.12 43.0026 297.506 43.8512C296.891 44.6998 296.584 45.9566 296.584 47.6214ZM311.241 54.0344H308.998V40.9175H311.241V54.0344ZM308.816 37.4382C308.816 37.0746 308.925 36.7675 309.144 36.5169C309.37 36.2664 309.701 36.1411 310.138 36.1411C310.574 36.1411 310.905 36.2664 311.132 36.5169C311.358 36.7675 311.471 37.0746 311.471 37.4382C311.471 37.8019 311.358 38.105 311.132 38.3475C310.905 38.5899 310.574 38.7111 310.138 38.7111C309.701 38.7111 309.37 38.5899 309.144 38.3475C308.925 38.105 308.816 37.8019 308.816 37.4382ZM322.479 50.5552C322.479 49.949 322.248 49.4803 321.788 49.1489C321.335 48.8095 320.539 48.5185 319.399 48.2761C318.268 48.0336 317.367 47.7427 316.696 47.4032C316.033 47.0638 315.54 46.6597 315.217 46.1909C314.902 45.7222 314.744 45.1645 314.744 44.518C314.744 43.4431 315.197 42.5339 316.102 41.7904C317.015 41.0468 318.179 40.675 319.593 40.675C321.081 40.675 322.285 41.0589 323.206 41.8267C324.135 42.5945 324.6 43.5764 324.6 44.7726H322.345C322.345 44.1583 322.083 43.629 321.557 43.1845C321.04 42.74 320.385 42.5177 319.593 42.5177C318.777 42.5177 318.139 42.6955 317.678 43.0511C317.217 43.4067 316.987 43.8714 316.987 44.4453C316.987 44.9867 317.201 45.3949 317.63 45.6697C318.058 45.9444 318.83 46.2071 319.945 46.4576C321.068 46.7082 321.978 47.0072 322.673 47.3547C323.368 47.7023 323.881 48.1225 324.212 48.6155C324.552 49.1004 324.721 49.6944 324.721 50.3976C324.721 51.5694 324.253 52.511 323.315 53.2222C322.378 53.9253 321.161 54.2769 319.666 54.2769C318.616 54.2769 317.686 54.091 316.878 53.7192C316.07 53.3475 315.435 52.8302 314.975 52.1675C314.522 51.4967 314.296 50.7734 314.296 49.9975H316.539C316.579 50.7491 316.878 51.3472 317.436 51.7917C318.001 52.2281 318.745 52.4463 319.666 52.4463C320.515 52.4463 321.194 52.2766 321.703 51.9372C322.22 51.5897 322.479 51.129 322.479 50.5552ZM330.686 37.7413V40.9175H333.135V42.6511H330.686V50.7855C330.686 51.3108 330.795 51.7068 331.013 51.9735C331.231 52.2322 331.603 52.3615 332.128 52.3615C332.387 52.3615 332.743 52.313 333.195 52.216V54.0344C332.605 54.1961 332.031 54.2769 331.474 54.2769C330.472 54.2769 329.716 53.9738 329.207 53.3677C328.698 52.7615 328.443 51.9008 328.443 50.7855V42.6511H326.055V40.9175H328.443V37.7413H330.686ZM342.106 42.9299C341.766 42.8733 341.398 42.845 341.002 42.845C339.531 42.845 338.533 43.4714 338.008 44.7241V54.0344H335.765V40.9175H337.947L337.984 42.4329C338.719 41.261 339.762 40.675 341.112 40.675C341.548 40.675 341.879 40.7316 342.106 40.8448V42.9299ZM348.688 50.7491L351.743 40.9175H354.144L348.87 56.0589C348.054 58.2411 346.757 59.3321 344.979 59.3321L344.554 59.2957L343.718 59.1381V57.3197L344.324 57.3682C345.084 57.3682 345.674 57.2147 346.094 56.9075C346.522 56.6004 346.874 56.0387 347.149 55.2225L347.646 53.8889L342.966 40.9175H345.415L348.688 50.7491Z" fill="#FAC864"/>
<path d="M101.902 54.1219V29.924H112.978V25.8276H86.2773V29.924H97.3958V54.1219H101.902Z" fill="white"/>
<path d="M118.494 54.5442C125.485 54.5442 130.16 50.1101 130.16 43.6488C130.16 37.1031 125.485 32.7112 118.494 32.7112C111.545 32.7112 106.87 37.1031 106.87 43.6488C106.87 50.1101 111.545 54.5442 118.494 54.5442ZM118.494 50.4901C113.44 50.4901 111.334 48.083 111.334 43.6488C111.334 39.1724 113.44 36.7231 118.494 36.7231C123.59 36.7231 125.696 39.1724 125.696 43.6488C125.696 48.083 123.59 50.4901 118.494 50.4901Z" fill="white"/>
<path d="M140.086 30.6841V25.8276H135.538V30.6841H140.086ZM140.086 54.1219V33.1335H135.538V54.1219H140.086Z" fill="white"/>
<path d="M160.395 54.1219V50.0256H156.604C153.993 50.0256 152.814 49.3499 152.814 46.7739V36.9342H160.395V33.1335H152.814V25.8276H148.308V33.1335H144.77V36.9342H148.308V47.0272C148.308 52.1371 151.087 54.1219 155.594 54.1219H160.395Z" fill="white"/>
<path fill-rule="evenodd" clip-rule="evenodd" d="M16.5199 21.7244C16.6789 21.7219 16.8408 21.7388 17.0026 21.777L38.6585 26.8821C38.6853 26.8884 38.7119 26.8953 38.7384 26.9027C41.0769 27.5588 43.5419 27.618 45.9053 27.0784C46.2688 26.9374 46.645 26.82 47.0321 26.728L67.8595 21.7778C68.0145 21.741 68.1696 21.7236 68.3222 21.7241C69.208 21.7206 70.013 22.3205 70.2299 23.215C70.4833 24.2605 69.8374 25.3125 68.7873 25.5648L48.2036 30.51L47.3684 30.7298C47.2844 30.7519 47.2003 30.7734 47.1162 30.7942C45.4606 31.5302 44.3583 33.1742 44.3583 35.0217L44.3582 36.9622C44.3582 38.2092 44.7204 39.4302 45.4018 40.4788L53.5525 53.0216C54.543 54.5458 56.7188 54.7366 57.9631 53.4047L66.8814 43.8584C67.6171 43.0709 68.8548 43.0263 69.6459 43.7587C70.4369 44.4911 70.4818 45.7232 69.7461 46.5107L60.8278 56.057C57.8491 59.2454 52.6441 58.7938 50.2678 55.137L42.4022 43.0329L34.5366 55.137C32.1604 58.7937 26.9553 59.2454 23.9767 56.057L15.0583 46.5107C14.3226 45.7232 14.3675 44.4911 15.1586 43.7587C15.9496 43.0263 17.1873 43.0709 17.923 43.8584L26.8413 53.4047C28.0856 54.7366 30.2615 54.5458 31.2519 53.0216L39.4026 40.4787C40.084 39.4302 40.4462 38.2092 40.4462 36.9622V34.3561C40.4462 32.6065 39.2373 31.0802 37.5157 30.671L16.0364 25.5659C14.9857 25.3161 14.3372 24.2657 14.5881 23.2196C14.805 22.3152 15.6232 21.7102 16.5199 21.7244Z" fill="white"/>
</svg>
