<?xml version="1.0" standalone="no"?>
<!DOCTYPE svg PUBLIC "-//W3C//DTD SVG 20010904//EN"
 "http://www.w3.org/TR/2001/REC-SVG-20010904/DTD/svg10.dtd">
<svg version="1.0" xmlns="http://www.w3.org/2000/svg"
 width="700.000000pt" height="700.000000pt" viewBox="0 0 700.000000 700.000000"
 preserveAspectRatio="xMidYMid meet">
<metadata>
Created by potrace 1.14, written by Peter Selinger 2001-2017
</metadata>
<g transform="translate(0.000000,700.000000) scale(0.100000,-0.100000)"
fill="#000000" stroke="none">
<path d="M190 5750 c-77 -21 -130 -68 -167 -148 -52 -111 -7 -243 107 -315 23
-14 75 -28 325 -87 44 -10 150 -35 235 -55 85 -21 162 -38 170 -40 8 -2 74
-17 145 -35 72 -17 168 -40 215 -51 47 -10 123 -28 170 -39 85 -20 251 -59
280 -65 8 -2 62 -15 120 -29 129 -31 539 -127 560 -131 8 -2 42 -10 75 -19 33
-8 74 -18 92 -21 17 -3 59 -12 92 -21 34 -8 69 -17 78 -19 124 -25 250 -61
299 -85 129 -63 227 -192 251 -330 8 -49 9 -436 1 -490 -25 -172 -53 -234
-208 -470 -53 -80 -153 -233 -224 -340 -70 -107 -200 -305 -289 -441 -89 -135
-224 -340 -300 -457 -76 -116 -156 -227 -177 -246 -106 -95 -250 -117 -375
-57 -74 36 -75 37 -413 397 -15 17 -91 97 -168 179 -78 83 -161 170 -184 195
-133 143 -319 337 -410 430 -83 85 -114 109 -148 119 -135 38 -268 -19 -320
-138 -21 -47 -23 -133 -6 -185 17 -49 50 -87 355 -407 24 -25 102 -108 174
-184 72 -76 153 -162 180 -190 28 -29 79 -84 114 -121 233 -249 407 -426 453
-461 314 -239 763 -228 1068 26 30 25 62 55 71 66 9 11 27 31 39 45 24 26 93
130 595 895 54 83 163 248 241 368 79 119 148 226 153 236 12 21 35 33 54 25
6 -2 60 -78 119 -167 58 -89 200 -304 314 -477 114 -173 225 -344 248 -380 22
-36 44 -69 49 -75 4 -5 67 -100 138 -209 167 -255 248 -339 409 -428 43 -23
151 -65 195 -74 91 -20 250 -26 350 -12 73 9 208 56 272 95 30 18 59 33 63 33
5 0 10 3 12 8 2 4 22 22 46 41 39 30 133 124 222 221 18 19 92 97 164 173 72
77 147 156 166 176 19 21 96 103 171 182 75 79 156 164 179 189 23 25 101 107
172 182 158 167 165 176 183 229 57 160 -70 332 -243 330 -111 -1 -135 -20
-467 -376 -21 -22 -94 -100 -164 -174 -69 -73 -139 -148 -156 -165 -16 -18
-96 -102 -176 -187 -81 -84 -161 -170 -179 -189 -104 -115 -209 -214 -244
-232 -135 -69 -281 -53 -393 45 -28 24 -267 368 -293 422 -3 5 -82 127 -177
270 -660 1000 -655 992 -697 1117 -33 97 -40 165 -40 398 1 256 9 305 69 400
56 89 186 187 270 204 11 3 43 10 70 16 28 6 61 14 75 16 14 3 32 7 40 10 8 3
26 8 40 10 14 3 81 19 150 35 69 17 134 33 145 35 11 2 47 10 80 18 33 8 128
30 210 50 83 19 200 47 260 61 61 15 119 28 130 31 11 2 65 15 120 28 55 14
111 27 125 30 14 2 75 16 135 31 150 35 211 50 340 80 127 29 146 34 315 74
69 17 195 46 280 66 216 49 252 61 300 103 136 116 108 331 -53 414 -45 23
-141 31 -194 16 -19 -5 -45 -12 -57 -14 -11 -3 -30 -7 -41 -9 -22 -5 -279 -66
-510 -121 -82 -19 -157 -37 -165 -39 -8 -2 -37 -8 -65 -15 -27 -6 -106 -25
-175 -41 -69 -17 -136 -33 -150 -35 -14 -3 -51 -12 -83 -20 -32 -8 -104 -25
-160 -38 -56 -13 -172 -41 -257 -61 -85 -20 -162 -38 -170 -40 -8 -2 -76 -18
-150 -35 -74 -18 -142 -33 -150 -35 -8 -2 -35 -8 -60 -15 -25 -7 -54 -13 -65
-15 -11 -1 -38 -7 -60 -13 -22 -6 -80 -20 -130 -32 -187 -43 -221 -51 -250
-60 -45 -13 -189 -39 -264 -47 -85 -9 -317 -9 -402 0 -73 8 -236 40 -334 65
-22 6 -51 13 -65 16 -51 10 -376 87 -405 96 -16 5 -41 11 -55 14 -14 2 -64 13
-112 25 -48 11 -98 23 -110 25 -13 2 -70 16 -128 30 -86 22 -208 50 -300 71
-8 2 -64 15 -125 30 -60 15 -121 29 -135 31 -14 3 -33 7 -42 10 -9 3 -25 7
-35 9 -30 6 -359 84 -488 115 -66 16 -190 45 -275 65 -85 20 -202 48 -260 62
-109 26 -197 35 -240 23z"/>
</g>
</svg>
