<svg width="103" height="103" viewBox="0 0 103 103" fill="none" xmlns="http://www.w3.org/2000/svg">
<circle cx="51.6309" cy="51.126" r="51.0273" fill="#B0B8ED"/>
<path d="M44.0667 35.3728H47.744V55.0167C47.744 57.6714 46.9438 59.7482 45.3433 61.247C43.7555 62.7459 41.6343 63.4953 38.9796 63.4953C36.2232 63.4953 34.0765 62.7904 32.5396 61.3804C31.0026 59.9705 30.2341 57.9953 30.2341 55.4549H33.8924C33.8924 57.0426 34.3242 58.2811 35.188 59.1702C36.0644 60.0594 37.3283 60.504 38.9796 60.504C40.4911 60.504 41.7105 60.0276 42.6378 59.075C43.5777 58.1223 44.054 56.7886 44.0667 55.0738V35.3728ZM73.1419 38.3832H64.225V63.1143H60.5859V38.3832H51.688V35.3728H73.1419V38.3832Z" fill="black"/>
</svg>
